HIERARCHY
ROOT SimulationBone
{
	OFFSET 0.000000 0.000000 0.000000
	CHANNELS 6 Xposition Yposition Zposition Zrotation Yrotation Xrotation 
	JOINT Hips
	{
		OFFSET 0.000000 0.000000 0.000000
		CHANNELS 6 Xposition Yposition Zposition Zrotation Yrotation Xrotation 
		JOINT LeftUpLeg
		{
			OFFSET 0.103460 1.857825 10.548519
			CHANNELS 3 Zrotation Yrotation Xrotation
			JOINT LeftLeg
			{
				OFFSET 43.500008 -0.000019 0.000016
				CHANNELS 3 Zrotation Yrotation Xrotation
				JOINT LeftFoot
				{
					OFFSET 42.372192 0.000004 0.000011
					CHANNELS 3 Zrotation Yrotation Xrotation
					JOINT LeftToe
					{
						OFFSET 17.300001 0.000001 -0.000016
						CHANNELS 3 Zrotation Yrotation Xrotation
						End Site
						{
							OFFSET 0.000000 0.000000 0.000000
						}
					}
				}
			}
		}
		JOINT RightUpLeg
		{
			OFFSET 0.103460 1.857824 -10.548484
			CHANNELS 3 Zrotation Yrotation Xrotation
			JOINT RightLeg
			{
				OFFSET 43.500046 -0.000008 0.000031
				CHANNELS 3 Zrotation Yrotation Xrotation
				JOINT RightFoot
				{
					OFFSET 42.372261 0.000000 0.000010
					CHANNELS 3 Zrotation Yrotation Xrotation
					JOINT RightToe
					{
						OFFSET 17.299986 -0.000007 0.000010
						CHANNELS 3 Zrotation Yrotation Xrotation
						End Site
						{
							OFFSET 0.000000 0.000000 0.000000
						}
					}
				}
			}
		}
		JOINT Spine
		{
			OFFSET 6.901969 -2.603749 -0.000000
			CHANNELS 3 Zrotation Yrotation Xrotation
			JOINT Spine1
			{
				OFFSET 12.588099 0.000014 -0.000003
				CHANNELS 3 Zrotation Yrotation Xrotation
				JOINT Spine2
				{
					OFFSET 12.343207 0.000019 0.000011
					CHANNELS 3 Zrotation Yrotation Xrotation
					JOINT Neck
					{
						OFFSET 25.832890 -0.000025 -0.000002
						CHANNELS 3 Zrotation Yrotation Xrotation
						JOINT Head
						{
							OFFSET 11.766609 0.000013 -0.000004
							CHANNELS 3 Zrotation Yrotation Xrotation
							End Site
							{
								OFFSET 0.000000 0.000000 0.000000
							}
						}
					}
					JOINT LeftShoulder
					{
						OFFSET 19.745899 -1.480392 6.000105
						CHANNELS 3 Zrotation Yrotation Xrotation
						JOINT LeftArm
						{
							OFFSET 11.284097 -0.000017 -0.000023
							CHANNELS 3 Zrotation Yrotation Xrotation
							JOINT LeftForeArm
							{
								OFFSET 33.000065 -0.000020 0.000044
								CHANNELS 3 Zrotation Yrotation Xrotation
								JOINT LeftHand
								{
									OFFSET 25.200005 0.000023 0.000007
									CHANNELS 3 Zrotation Yrotation Xrotation
									End Site
									{
										OFFSET 0.000000 0.000000 0.000000
									}
								}
							}
						}
					}
					JOINT RightShoulder
					{
						OFFSET 19.746096 -1.480391 -6.000090
						CHANNELS 3 Zrotation Yrotation Xrotation
						JOINT RightArm
						{
							OFFSET 11.284126 -0.000026 -0.000012
							CHANNELS 3 Zrotation Yrotation Xrotation
							JOINT RightForeArm
							{
								OFFSET 33.000092 0.000010 0.000014
								CHANNELS 3 Zrotation Yrotation Xrotation
								JOINT RightHand
								{
									OFFSET 25.199760 0.000151 0.000418
									CHANNELS 3 Zrotation Yrotation Xrotation
									End Site
									{
										OFFSET 0.000000 0.000000 0.000000
									}
								}
							}
						}
					}
				}
			}
		}
	}
}
MOTION
Frames: 15
Frame Time: 0.033333
-4.184878 0.000000 540.375087 0.000000 212.675327 0.000000 -6.719345 89.267616 -2.401009 80.274946 -4.182973 168.833186 172.382090 -3.070802 163.849777 -29.237226 -0.978241 -7.311953 91.367495 3.155876 -12.395490 21.454555 0.003085 0.000000 123.943604 16.018004 -159.736514 -61.680378 -4.694611 0.463321 77.809105 0.799724 3.979567 21.454560 -0.003108 -0.000017 8.347676 1.099880 -1.402834 6.656554 2.278284 -2.740787 6.338573 2.261832 -2.754486 21.518637 10.461372 -9.505245 -23.022047 3.098503 -11.369479 -108.348110 -87.213996 -73.582133 8.389582 42.926988 19.207532 -75.090922 -15.630891 2.749993 1.289377 -5.371959 39.158397 -173.249019 79.106117 8.344009 6.494335 -49.375632 -8.159521 -50.111773 11.201669 -1.530869 1.334826 9.707225 -3.264141 
-9.536598 0.000000 539.957668 0.000000 210.132267 0.000000 -6.732468 87.487572 -3.324368 81.770509 -4.109694 171.514939 177.959964 -3.212905 162.337136 -28.233594 -0.663939 -6.422405 94.511281 2.659793 -14.044792 21.454550 0.003092 -0.000000 123.344433 17.742403 -159.115404 -53.546265 -4.021285 -0.706698 76.895854 1.610189 3.906697 21.454558 -0.003108 -0.000017 8.493010 1.125783 -1.705661 6.940349 2.351467 -3.341573 6.622525 2.331388 -3.355695 21.953010 12.110379 -9.345020 -23.149936 2.106755 -10.806600 -106.286213 -87.829034 -75.604061 4.196072 42.260832 16.630095 -75.100853 -16.174569 2.788899 1.865308 -5.780473 39.273031 -170.075931 77.763343 11.569091 9.695666 -48.216730 -8.464316 -51.654945 11.285781 -1.586593 1.350035 9.506660 -1.258664 
-14.721875 0.000000 539.598174 0.000000 207.573129 0.000000 -6.695983 85.471817 -4.114801 83.405979 -4.449179 174.434615 -175.727872 -2.648499 161.489728 -25.757569 0.034117 -5.729944 97.231657 2.323124 -15.832899 21.454553 0.003088 -0.000000 124.016086 19.005999 -157.922156 -43.735341 -3.856788 -1.441778 76.045605 1.928296 3.147701 21.454560 -0.003108 -0.000018 8.679086 1.101798 -2.000031 7.306924 2.327308 -3.927398 6.989351 2.303705 -3.941352 22.264274 12.618222 -9.109376 -23.504655 1.732925 -10.438890 -102.692147 -88.449591 -79.156066 -0.332815 41.736636 14.124427 -74.878271 -16.382057 2.794057 0.981122 -5.593381 38.617862 -168.024894 77.573061 13.660904 13.801011 -48.562607 -9.899686 -53.125952 11.535780 -1.652327 1.344141 10.373654 -1.158977 
-19.750108 0.000000 539.291239 0.000000 205.009763 0.000000 -6.601878 83.262779 -4.628751 84.536473 -5.136583 177.095992 -169.719641 -2.181899 162.430709 -23.137558 -0.005563 -5.738741 98.897417 2.362451 -18.218874 21.454553 0.003093 0.000001 125.264262 19.261996 -156.761174 -34.007973 -4.132271 -0.669425 76.893211 1.927811 5.237538 21.454557 -0.003108 -0.000017 8.794265 1.023493 -2.157827 7.536526 2.184981 -4.245243 7.219140 2.159466 -4.258325 21.129626 12.832239 -9.234779 -22.723819 0.969456 -10.062030 -96.388299 -89.093015 -85.414241 -3.797421 41.505506 11.183353 -75.976429 -15.288468 2.763803 0.909610 -4.338220 39.179102 -161.072035 77.575649 20.754880 17.671585 -50.091952 -11.952416 -54.037404 11.937510 -1.710244 0.340661 11.364754 -1.725356 
-24.630697 0.000000 539.031500 0.000000 202.454334 0.000000 -6.392485 80.994041 -4.526262 84.814317 -4.956582 -179.811648 -164.975652 -3.740404 162.369538 -21.708197 -0.163058 -4.928457 99.850938 1.765359 -21.323774 21.454550 0.003096 -0.000000 126.831026 18.278793 -154.989587 -27.251348 -5.140832 1.074906 78.981466 0.647202 5.438936 21.454558 -0.003108 -0.000016 8.703295 1.187429 -2.348729 7.344687 2.521106 -4.618541 7.027392 2.493341 -4.633639 19.991154 12.612032 -9.366594 -22.325252 0.307878 -9.762766 -61.876173 -89.591216 -119.891075 -5.456870 42.007487 9.540405 -77.910479 -13.637539 2.730675 0.644663 -4.332665 39.488018 -155.514911 77.567364 26.424081 22.849570 -51.799229 -14.295409 -54.718001 11.893536 -1.730691 -0.299178 11.702196 -4.220577 
-29.373042 0.000000 538.813592 0.000000 199.919018 0.000000 -6.108712 79.206703 -3.952671 84.306589 -4.243661 -176.032713 -162.015598 -6.691602 162.076127 -21.523558 -0.343934 -3.877025 98.228570 0.504691 -24.652692 21.454555 0.003092 -0.000000 128.098859 16.610504 -155.958504 -26.320230 -5.808516 4.218065 80.349184 -2.153911 3.225268 21.454558 -0.003109 -0.000017 8.428976 1.446023 -2.777317 6.774670 3.051563 -5.467291 6.457685 3.018685 -5.485546 19.178403 12.422582 -9.389021 -22.950376 -0.280064 -9.440687 -58.802219 -89.245929 -122.997405 -5.646272 42.859396 9.472433 -80.176360 -11.804283 2.699907 -0.187041 -4.682562 38.687127 -153.501958 77.426560 28.479968 28.176907 -53.812431 -17.197675 -54.458283 12.042861 -1.731774 -0.818225 11.242530 -7.783384 
-33.986542 0.000000 538.632151 0.000000 197.415692 0.000000 -5.826381 78.509361 -3.132621 83.407212 -2.216503 -173.213535 -160.374440 -10.775102 161.091596 -21.892681 -0.355253 -2.665383 92.818207 -1.782173 -26.808066 21.454555 0.003092 -0.000000 127.838970 13.639893 -158.735318 -28.786819 -5.590734 5.814821 71.769968 -4.475978 -1.087421 21.454560 -0.003109 -0.000017 8.021851 1.852041 -2.927512 5.937337 3.851038 -5.759697 5.620209 3.816379 -5.782763 18.547737 12.441341 -9.431644 -22.620330 -0.422774 -9.334424 -53.515799 -89.110445 -128.295623 -4.025488 44.937368 11.013210 -82.051534 -10.160413 2.666201 -1.650860 -4.449144 38.075156 -152.501991 76.414900 29.525876 32.614833 -55.267719 -20.481422 -52.655168 12.164727 -1.678667 -0.611551 10.062844 -8.922276 
-38.480597 0.000000 538.481812 0.000000 194.955646 0.000000 -5.928222 78.776787 -2.283967 82.680217 0.335623 -172.015428 -160.994785 -14.698200 158.590668 -25.268609 1.119248 -1.482043 83.234967 -4.998100 -26.934212 21.454550 0.003096 0.000002 125.505341 10.202697 -161.728484 -34.304314 -4.903284 7.245191 62.824237 -7.073793 -4.476836 21.454558 -0.003106 -0.000017 7.870859 2.370451 -2.772491 5.618293 4.871845 -5.431971 5.300492 4.839136 -5.461227 17.597004 12.546450 -9.170594 -22.487047 -1.087340 -8.635235 -80.738006 -88.808100 -101.102284 -3.075912 47.696454 12.475856 -82.839020 -9.378989 2.645826 -2.087273 -4.327918 36.907863 -153.874026 75.241248 28.152107 33.105363 -56.932301 -20.975800 -48.786877 12.540379 -1.578067 0.525502 8.985302 -9.108548 
-42.864607 0.000000 538.357211 0.000000 192.549334 0.000000 -5.074344 78.456177 -1.443401 83.405438 2.605825 -171.890696 -162.835180 -18.592810 158.299838 -34.636248 3.097905 -1.492838 74.685195 -5.245497 -20.673678 21.454550 0.003094 -0.000003 124.564564 7.722199 -164.610182 -43.590322 -1.524049 8.780457 69.539440 -7.812270 -4.338121 21.454558 -0.003111 -0.000018 8.099620 2.917358 -2.648448 6.060260 5.968625 -5.147804 5.741691 5.937608 -5.183737 17.693014 12.488082 -8.597124 -23.140676 -1.647756 -7.795839 -103.126301 -88.701850 -78.702152 0.037897 50.883420 15.498603 -82.337309 -9.288753 2.617595 -2.011195 -4.938973 35.174914 -157.247060 75.496820 24.695080 29.566741 -59.120246 -20.223700 -41.967168 12.919043 -1.402317 1.978178 8.247068 -8.666021 
-47.147972 0.000000 538.252984 0.000000 190.206171 0.000000 -4.404814 78.850441 -0.989145 84.493990 2.751431 -171.983412 -166.817740 -19.543307 162.517931 -46.201988 3.782566 -4.300132 67.104566 -2.572583 -14.936777 21.454557 0.003088 0.000001 126.200968 6.577101 -159.830894 -48.607147 -3.235731 6.224589 74.895381 -6.121855 -5.873130 21.454557 -0.003108 -0.000017 8.363465 2.899296 -2.597913 6.592113 5.941182 -5.033425 6.273530 5.910856 -5.069195 18.786615 11.963270 -8.165411 -23.346452 -1.620278 -7.516166 -107.497390 -87.920101 -74.383274 0.019685 54.095139 19.945696 -78.454579 -11.385253 2.595991 -1.979149 -6.661692 33.735930 -162.614961 77.288563 19.184086 26.602192 -61.890489 -20.180764 -35.718918 12.317192 -1.204711 3.736120 5.620412 -10.493541 
-51.340090 0.000000 538.163765 0.000000 187.934399 0.000000 -4.110586 79.886742 -0.514663 85.087905 1.805062 -171.261926 -173.219581 -18.450393 168.981148 -57.564384 3.238462 -5.591773 67.109505 -0.021025 -10.598059 21.454563 0.003096 -0.000004 128.732673 6.040209 -157.833104 -51.011934 -4.149088 5.186059 79.486982 -5.396871 -7.114878 21.454560 -0.003109 -0.000017 8.384490 2.550226 -2.401346 6.656510 5.233748 -4.657096 6.338130 5.205699 -4.688597 19.559790 12.129772 -8.545040 -21.777464 -1.622356 -8.029728 -108.097818 -88.565096 -73.732855 -3.108291 56.378014 24.904398 -71.917288 -14.847947 2.560620 -1.275354 -7.065015 30.951675 -162.437007 77.538671 19.364027 24.563372 -63.030980 -22.933229 -33.123518 12.044257 -1.129020 6.687663 0.018752 -14.458010 
-55.450363 0.000000 538.084191 0.000000 185.741004 0.000000 -4.445282 80.996391 -0.366222 85.098078 1.306739 -171.154837 179.404877 -16.857407 173.542225 -67.156455 2.783723 -3.524177 72.437749 -0.629434 -9.492916 21.454560 0.003091 0.000001 131.078638 4.566298 -158.542105 -51.530728 -3.969873 5.043324 82.701604 -5.038910 -7.036215 21.454558 -0.003108 -0.000018 8.305074 2.249201 -1.952597 6.526518 4.604424 -3.778564 6.208065 4.581675 -3.806292 19.811334 12.447851 -8.988216 -20.387843 -1.504669 -8.582433 164.394840 -89.809228 13.896107 -5.222898 57.868416 28.918362 -65.708831 -16.883391 2.448374 0.403000 -6.138552 29.840229 -164.147983 76.888792 17.622066 24.434056 -62.756475 -26.073071 -34.321325 12.009702 -1.152914 7.543645 -5.596858 -18.249330 
-59.488189 0.000000 538.008897 0.000000 183.631694 0.000000 -4.603065 82.598778 -0.377853 85.173948 0.922257 -172.297028 172.612773 -14.820495 175.812894 -73.491968 2.407287 -1.936303 74.138261 -1.516052 -9.217107 21.454550 0.003093 0.000000 134.619928 2.173796 -160.153975 -49.869011 -3.688617 4.510146 84.814366 -4.506702 -6.963399 21.454557 -0.003106 -0.000017 8.266800 2.022053 -1.412786 6.476110 4.119606 -2.712248 6.157507 4.103293 -2.737089 18.953114 11.488909 -9.399571 -18.873816 -1.196269 -9.069532 -173.482229 -89.508618 -8.225147 -6.803325 59.310228 33.614725 -60.075858 -18.736611 2.356884 3.247466 -4.963038 30.032755 -164.496063 77.497478 17.262007 24.773859 -62.861031 -29.208102 -37.553637 12.198241 -1.240675 8.572036 -9.323285 -22.135086 
-63.462968 0.000000 537.932518 0.000000 181.610932 0.000000 -4.620041 84.306129 -0.455965 85.625406 0.551796 -173.830742 166.738769 -12.863998 176.702663 -76.252246 2.269868 -1.630940 76.130122 -1.693447 -9.684672 21.454545 0.003090 -0.000000 139.058034 -0.423596 -162.302862 -47.215052 -3.723000 3.938667 86.220114 -3.974094 -6.780282 21.454557 -0.003109 -0.000018 8.269033 1.800762 -1.037803 6.496973 3.656638 -1.974164 6.178375 3.644789 -1.996223 18.719790 10.443001 -9.052002 -18.255026 -0.778599 -8.872318 -138.900462 -88.840052 -42.856094 -5.314778 60.982244 39.620534 -54.891184 -19.845231 2.241905 4.978831 -4.166309 27.827803 -167.197061 78.587494 14.504839 24.864151 -63.120947 -31.200338 -41.349033 12.421982 -1.352871 7.881376 -8.452840 -22.335449 
-67.384099 0.000000 537.849691 0.000000 179.682003 0.000000 -4.680041 86.035950 -0.548715 86.150734 -0.123841 -175.198112 161.053593 -10.292206 176.780008 -76.176676 3.009298 -3.605192 77.276050 -0.607398 -11.123422 21.454553 0.003093 0.000000 143.854179 -2.407899 -165.422360 -44.007848 -3.587658 3.666822 87.034737 -3.656025 -6.391281 21.454558 -0.003107 -0.000017 8.259499 1.499348 -0.831693 6.487423 3.042707 -1.578840 6.168967 3.033255 -1.597193 18.772357 9.360289 -8.595375 -17.702182 -0.631996 -8.491733 -135.989039 -87.741027 -45.827352 -1.006974 62.210012 45.238033 -50.977718 -19.385791 2.075553 6.663347 -3.737106 24.905808 -171.436013 79.789293 10.193127 25.280262 -63.769740 -31.868672 -45.417032 12.584124 -1.478327 6.395611 -5.232358 -21.987298 
